<svg width="24" height="24" viewBox="0 0 24 24" fill="none" xmlns="http://www.w3.org/2000/svg">
<path d="M8.66494 15.735C8.90994 15.908 9.20194 16 9.50094 15.999V15.995C9.78325 15.9957 10.0596 15.9135 10.2955 15.7584C10.5314 15.6034 10.7166 15.3824 10.8279 15.123L11.4409 13.259C11.5824 12.8367 11.8203 12.4531 12.1356 12.1386C12.451 11.8241 12.8352 11.5873 13.2579 11.447L15.0359 10.869C15.3228 10.7689 15.5708 10.5807 15.7444 10.3313C15.918 10.0819 16.0083 9.78398 16.0026 9.48016C15.9968 9.17634 15.8952 8.88211 15.7123 8.63946C15.5293 8.39682 15.2744 8.21816 14.9839 8.129L13.2289 7.559C12.8045 7.41753 12.4189 7.17912 12.1026 6.86269C11.7864 6.54626 11.5482 6.1605 11.4069 5.736L10.8289 3.959C10.7281 3.67597 10.5417 3.43137 10.2955 3.25919C10.0493 3.087 9.75554 2.99578 9.45511 2.9982C9.15468 3.00062 8.86246 3.09656 8.61906 3.27269C8.37566 3.44881 8.19317 3.69638 8.09694 3.981L7.51394 5.773C7.37316 6.18515 7.14073 6.56001 6.83415 6.86937C6.52756 7.17872 6.15481 7.41451 5.74394 7.559L3.96694 8.129C3.68173 8.22768 3.43461 8.41325 3.2603 8.65963C3.086 8.906 2.99327 9.2008 2.99515 9.50259C2.99702 9.80438 3.09341 10.098 3.27076 10.3422C3.44812 10.5864 3.69752 10.7689 3.98394 10.864L5.73794 11.433C6.16231 11.5755 6.54778 11.8146 6.86397 12.1314C7.18015 12.4483 7.4184 12.8343 7.55994 13.259L8.13794 15.034C8.23694 15.317 8.42094 15.562 8.66494 15.735ZM8.29094 11.484C8.17955 11.3382 8.05827 11.2002 7.92794 11.071H7.93094C7.4479 10.5879 6.85902 10.224 6.21094 10.008L4.61094 9.5L6.22194 8.976C6.85947 8.75526 7.4377 8.39087 7.91194 7.911C8.38405 7.42804 8.74005 6.84395 8.95294 6.203L9.46794 4.621L9.98394 6.208C10.1997 6.85477 10.5634 7.44224 11.0462 7.92366C11.529 8.40507 12.1175 8.76712 12.7649 8.981L14.3849 9.503L12.7949 10.018C12.1486 10.233 11.5614 10.5958 11.0798 11.0775C10.5983 11.5592 10.2357 12.1466 10.0209 12.793L9.50594 14.375L8.99094 12.79C8.83311 12.3182 8.59642 11.8766 8.29094 11.484ZM16.3319 20.781C16.1411 20.6451 15.9977 20.4527 15.9219 20.231L15.5939 19.225C15.5303 19.0335 15.4231 18.8595 15.2806 18.7166C15.1381 18.5738 14.9643 18.4661 14.7729 18.402L13.7819 18.079C13.5552 18.0022 13.3582 17.8566 13.2182 17.6625C13.0782 17.4683 13.0022 17.2353 13.0009 16.996C13.0007 16.758 13.0748 16.5259 13.2131 16.3323C13.3514 16.1386 13.5468 15.993 13.7719 15.916L14.7779 15.59C14.9651 15.5235 15.1345 15.415 15.2731 15.2729C15.4118 15.1307 15.5161 14.9587 15.5779 14.77L15.9019 13.779C15.9782 13.5548 16.1222 13.3597 16.314 13.2209C16.5059 13.082 16.7362 13.0062 16.973 13.0039C17.2098 13.0016 17.4415 13.0729 17.6361 13.208C17.8306 13.3431 17.9784 13.5353 18.0589 13.758L18.3879 14.772C18.4524 14.9621 18.5599 15.1347 18.7022 15.2762C18.8444 15.4178 19.0175 15.5245 19.2079 15.588L20.1999 15.911C20.4286 15.9825 20.629 16.1242 20.7726 16.316C20.9162 16.5077 20.9959 16.7399 21.0002 16.9794C21.0045 17.219 20.9333 17.4538 20.7967 17.6507C20.66 17.8475 20.4649 17.9963 20.2389 18.076L19.2249 18.405C19.0343 18.4694 18.8611 18.5771 18.7192 18.7197C18.5773 18.8624 18.4704 19.036 18.4069 19.227L18.0849 20.216C18.0069 20.446 17.8589 20.646 17.6599 20.786C17.4658 20.924 17.2333 20.9977 16.9951 20.9968C16.7569 20.9959 16.525 20.9205 16.3319 20.781ZM15.3019 16.998C15.6944 17.1386 16.0505 17.3651 16.3443 17.661C16.6381 17.9568 16.8621 18.3145 16.9999 18.708C17.1393 18.3162 17.3641 17.9603 17.6582 17.6663C17.9523 17.3722 18.3081 17.1473 18.6999 17.008C18.3043 16.8695 17.9447 16.6442 17.6474 16.3486C17.3502 16.0531 17.1228 15.6948 16.9819 15.3C16.8444 15.6898 16.6222 16.0443 16.3314 16.338C16.0406 16.6318 15.6883 16.8575 15.2999 16.999" fill="white"/>
</svg>
